<?xml version="1.0" encoding="UTF-8"?>
<svg xmlns="http://www.w3.org/2000/svg" viewBox="0 0 1024 682" fill="none">
  <image href="payth-reference.png" width="1024" height="682" opacity="0.35"/>
  <g transform="translate(152, 220)">

  <defs>
    <linearGradient id="payth-gradient" gradientUnits="userSpaceOnUse" x1="0" y1="142" x2="720" y2="0">
      <stop offset="0%" stop-color="#2563EB"/>
      <stop offset="100%" stop-color="#06B6D4"/>
    </linearGradient>
  </defs>
    <path d="M 13.288 5.246 C 8.852 6.007, 7.756 6.659, 5.923 9.625 C 3.256 13.940, 3.016 21.849, 5.439 25.547 C 6.357 26.949, 8.547 28.972, 10.304 30.044 C 13.334 31.891, 15.623 31.993, 54.307 31.996 C 93.520 32, 104 32.658, 104 35.119 C 104 35.603, 104.567 36, 105.259 36 C 106.486 36, 108.119 38.052, 110.721 42.864 C 112.300 45.783, 112.388 53.376, 110.878 56.316 C 109.127 59.724, 104.751 64.101, 102 65.197 C 100.553 65.773, 83.555 66.335, 61.643 66.531 L 23.786 66.870 18.435 69.488 C 13.116 72.090, 8.768 76.579, 5.637 82.700 C 4.267 85.379, 4 89.504, 4 108 C 4 132.340, 4.465 134.638, 9.967 137.483 C 14.414 139.782, 24.491 139.477, 28.632 136.918 C 30.484 135.774, 32.062 134.761, 32.138 134.668 C 32.214 134.576, 32.561 125.790, 32.908 115.145 C 33.514 96.583, 33.634 95.715, 35.820 93.945 C 37.932 92.234, 40.604 92.094, 72.282 92.026 C 93.094 91.981, 108.035 91.535, 110.482 90.884 C 117.005 89.151, 125.718 84.029, 129.945 79.443 C 135.073 73.881, 139.396 65.098, 140.923 57.140 C 141.869 52.214, 141.880 49.172, 140.972 43.640 C 137.578 22.956, 121.904 8.097, 100.270 5.054 C 90.632 3.698, 21.420 3.852, 13.288 5.246 M 203.499 5.369 C 197.868 7.491, 195.161 10.319, 189.974 19.500 C 179.217 38.541, 158.303 75.696, 151.979 87 C 149.363 91.675, 143.125 102.700, 138.116 111.500 C 133.108 120.300, 129.008 128.331, 129.005 129.346 C 128.997 132.337, 132.167 136.827, 135.165 138.068 C 136.764 138.731, 141.151 139.059, 145.474 138.841 C 156.573 138.281, 152.690 143.695, 188.750 78.500 C 214.580 31.801, 213.941 32.850, 216.348 33.194 C 217.895 33.416, 220.604 37.073, 226.201 46.500 C 230.447 53.650, 235.462 61.975, 237.346 65 C 239.230 68.025, 241.881 72.525, 243.238 75 C 244.594 77.475, 247.139 81.750, 248.894 84.500 L 252.085 89.500 248.792 90.032 C 246.982 90.325, 235.825 90.428, 224 90.261 C 196.859 89.877, 192.808 90.306, 188.675 93.999 C 185.860 96.514, 185.500 97.441, 185.500 102.168 C 185.500 108.337, 187.829 112.316, 192.399 113.958 C 194.189 114.602, 208.008 115, 228.524 115 C 246.798 115, 263.092 115.268, 264.732 115.596 C 267.105 116.071, 268.560 117.605, 271.857 123.110 C 274.136 126.914, 276 130.424, 276 130.910 C 276 132.752, 283.106 137.929, 286.513 138.568 C 288.468 138.935, 292.759 139.041, 296.048 138.803 C 302.925 138.305, 307.335 135.673, 307.803 131.786 C 308.110 129.241, 307.305 127.813, 287.062 95 C 277.391 79.325, 267.129 62.549, 265.509 59.766 C 263.823 56.870, 249.065 32.990, 244.023 25 C 241.420 20.875, 237.988 15.361, 236.395 12.747 C 232.213 5.880, 227.636 3.966, 215.761 4.119 C 210.667 4.185, 205.150 4.747, 203.499 5.369 M 287 5.141 C 285.075 5.669, 282.712 7.028, 281.750 8.161 C 279.332 11.008, 279.482 17.067, 282.039 19.811 C 283.160 21.015, 283.913 22, 283.711 22 C 283.510 22, 285.630 24.388, 288.422 27.307 C 293.954 33.087, 300.741 40.455, 308.420 49.015 C 311.127 52.032, 316.089 57.425, 319.449 61 C 322.808 64.575, 329.481 71.887, 334.278 77.248 L 343 86.997 343 108.630 C 343 128.668, 343.151 130.508, 345.042 133.568 C 347.643 137.777, 352.295 139.342, 360.625 138.811 C 365.981 138.470, 367.507 137.948, 369.776 135.681 L 372.500 132.960 373 109.625 L 373.500 86.290 377.396 81.895 C 379.539 79.478, 384.043 74.575, 387.406 71 C 390.769 67.425, 397.791 59.779, 403.010 54.010 C 408.230 48.240, 412.950 43.024, 413.500 42.418 C 414.050 41.811, 418.775 36.712, 424 31.084 C 429.225 25.457, 434.341 19.293, 435.370 17.385 C 437.055 14.259, 437.101 13.552, 435.837 10.231 C 434.707 7.263, 433.662 6.313, 430.467 5.350 C 424.919 3.677, 418.247 3.737, 412.265 5.514 C 406.635 7.186, 408.399 5.442, 378.213 39.177 C 369.021 49.449, 360.712 58.142, 359.750 58.494 C 356.549 59.666, 354.215 57.990, 345.425 48.206 C 340.629 42.868, 331.906 33.325, 326.041 27 C 320.175 20.675, 313.441 13.370, 311.076 10.766 C 308.388 7.808, 305.410 5.653, 303.137 5.021 C 298.714 3.793, 291.724 3.845, 287 5.141 M 452.522 5.353 C 447.090 6.990, 444 11.671, 444 18.266 C 444 22.705, 444.414 23.649, 447.882 27.118 L 451.765 31 471.882 31 C 490.667 31, 492.133 31.133, 494 33 C 495.944 34.944, 496 36.333, 496 82.453 C 496 114.013, 496.358 130.675, 497.068 132.203 C 497.656 133.466, 499.343 135.400, 500.818 136.500 C 502.998 138.125, 505.061 138.500, 511.832 138.500 C 519.978 138.500, 520.229 138.427, 523.082 135.234 L 526 131.968 526 83.675 C 526 43.578, 526.241 35.053, 527.417 33.441 C 528.720 31.657, 530.522 31.460, 549.717 31 C 567.720 30.569, 570.983 30.248, 573.383 28.672 C 577.258 26.128, 579.257 20.898, 578.439 15.444 C 577.635 10.079, 574.515 6.514, 569.373 5.086 C 563.685 3.507, 457.845 3.748, 452.522 5.353 M 599 5.581 C 591.603 8.756, 592.047 4.512, 592.022 72.298 L 592 133.095 594.622 135.525 C 597.818 138.488, 602.404 139.445, 609.766 138.685 C 616.489 137.991, 618.919 135.902, 620.031 129.858 C 620.472 127.461, 620.887 117.192, 620.954 107.037 C 621.055 91.549, 621.335 88.287, 622.692 86.787 C 624.178 85.146, 626.777 85, 654.500 85 C 682.478 85, 684.811 85.134, 686.345 86.829 C 687.762 88.394, 688.001 91.381, 688.006 107.579 C 688.009 117.985, 688.458 128.108, 689.004 130.074 C 690.643 135.973, 694.041 138.344, 701.542 138.822 C 708.904 139.291, 713.099 137.961, 716.034 134.230 C 717.939 131.808, 718 129.877, 717.996 72.115 C 717.993 14.998, 717.912 12.367, 716.064 9.337 C 714.501 6.774, 713.084 5.938, 708.597 4.934 C 701.298 3.301, 693.707 5.151, 690.601 9.320 C 688.656 11.932, 688.476 13.655, 688.176 32.565 C 687.866 52.142, 687.764 53.052, 685.704 54.495 C 683.908 55.753, 678.690 56, 653.932 56 C 626.979 56, 624.170 55.842, 622.758 54.250 C 621.495 52.827, 621.133 48.768, 620.819 32.500 C 620.483 15.044, 620.191 12.092, 618.526 9.292 C 617.013 6.747, 615.614 5.868, 611.760 5.042 C 605.400 3.678, 603.218 3.770, 599 5.581" fill="url(#payth-gradient)" fill-rule="evenodd"/>
  </g>
  <text
    x="512"
    y="408"
    text-anchor="middle"
    font-family="Inter, system-ui, -apple-system, sans-serif"
    font-size="24"
    font-weight="400"
    fill="#64748B"
  >Find your path to payment</text>
</svg>