<?xml version="1.0" encoding="UTF-8"?>
<svg xmlns="http://www.w3.org/2000/svg" viewBox="0 0 148 142" fill="none" role="img" aria-label="PAYTH">
  <defs>
    <linearGradient id="payth-gradient" gradientUnits="userSpaceOnUse" x1="0" y1="0" x2="148" y2="142">
      <stop offset="0%" stop-color="#2563EB"/>
      <stop offset="100%" stop-color="#06B6D4"/>
    </linearGradient>
  </defs>
  <path d="M 13.288 5.246 C 8.852 6.007, 7.756 6.659, 5.923 9.625 C 3.256 13.940, 3.016 21.849, 5.439 25.547 C 6.357 26.949, 8.547 28.972, 10.304 30.044 C 13.334 31.891, 15.623 31.993, 54.307 31.996 C 93.520 32, 104 32.658, 104 35.119 C 104 35.603, 104.567 36, 105.259 36 C 106.486 36, 108.119 38.052, 110.721 42.864 C 112.300 45.783, 112.388 53.376, 110.878 56.316 C 109.127 59.724, 104.751 64.101, 102 65.197 C 100.553 65.773, 83.555 66.335, 61.643 66.531 L 23.786 66.870 18.435 69.488 C 13.116 72.090, 8.768 76.579, 5.637 82.700 C 4.267 85.379, 4 89.504, 4 108 C 4 132.340, 4.465 134.638, 9.967 137.483 C 14.414 139.782, 24.491 139.477, 28.632 136.918 C 30.484 135.774, 32.062 134.761, 32.138 134.668 C 32.214 134.576, 32.561 125.790, 32.908 115.145 C 33.514 96.583, 33.634 95.715, 35.820 93.945 C 37.932 92.234, 40.604 92.094, 72.282 92.026 C 93.094 91.981, 108.035 91.535, 110.482 90.884 C 117.005 89.151, 125.718 84.029, 129.945 79.443 C 135.073 73.881, 139.396 65.098, 140.923 57.140 C 141.869 52.214, 141.880 49.172, 140.972 43.640 C 137.578 22.956, 121.904 8.097, 100.270 5.054 C 90.632 3.698, 21.420 3.852, 13.288 5.246 M 138.541 110.682 C 133.652 119.308, 129.460 127.373, 129.225 128.606 C 128.675 131.481, 131.643 136.516, 134.712 137.915 C 136.022 138.512, 139.548 139, 142.547 139 L 148 139 148 117 C 148 104.900, 147.871 95, 147.714 95 C 147.557 95, 143.429 102.057, 138.541 110.682" fill="url(#payth-gradient)" fill-rule="evenodd"/>
</svg>