<svg xmlns="http://www.w3.org/2000/svg" width="1024" height="682" viewBox="0 0 1024 682" version="1.1">
	<path d="M -0 341.001 L -0 682.002 512.250 681.751 L 1024.500 681.500 1024.751 340.750 L 1025.003 -0 512.501 -0 L 0 0 -0 341.001 M 0.494 341.500 C 0.494 529.050, 0.609 605.626, 0.750 511.669 C 0.891 417.712, 0.891 264.262, 0.750 170.669 C 0.609 77.076, 0.494 153.950, 0.494 341.500 M 360.500 224.681 C 355.031 225.909, 351.940 227.332, 349.550 229.723 C 348.105 231.167, 340.256 244.083, 332.106 258.425 C 283.514 343.934, 282 346.697, 282 349.884 C 282 351.956, 282.869 353.960, 284.455 355.545 C 286.651 357.742, 287.749 358, 294.907 358 C 306.724 358, 307.259 357.632, 314.516 344.500 C 316.036 341.750, 318.397 337.475, 319.763 335 C 321.129 332.525, 323.048 329.150, 324.027 327.500 C 325.006 325.850, 329.381 317.975, 333.748 310 C 363.688 255.332, 365.379 252.500, 368.089 252.500 C 370.163 252.500, 372.320 255.536, 383.536 274.248 C 397.094 296.867, 404.273 308.997, 404.819 310.208 C 404.995 310.598, 391.429 311.048, 374.673 311.208 C 345.844 311.484, 344.088 311.607, 342.001 313.498 C 335.094 319.753, 335.963 328.751, 343.880 332.948 C 345.652 333.887, 355.388 334.247, 381.977 334.355 C 410.425 334.470, 418.026 334.776, 419.329 335.858 C 420.228 336.604, 423.078 340.795, 425.661 345.169 C 432.610 356.937, 434.208 358, 444.942 358 C 455.045 358, 459.007 356.076, 458.991 351.177 C 458.983 348.677, 450.682 334.588, 422.063 288.500 C 416.940 280.250, 411.963 272.150, 411.003 270.500 C 403.023 256.788, 387.144 231.895, 384.749 229.342 C 382.979 227.456, 380.039 225.744, 377.450 225.092 C 373.178 224.016, 364.407 223.804, 360.500 224.681 M 161.993 227.226 C 160.088 228.510, 157.967 230.672, 157.279 232.030 C 154.337 237.845, 156.711 246.184, 162.266 249.544 C 165.309 251.385, 168.093 251.529, 209.500 252 C 241.641 252.365, 254.077 252.831, 255.642 253.727 C 259.061 255.687, 262.847 260.756, 264.158 265.132 C 266.302 272.288, 262.442 281.296, 255.500 285.336 C 254.113 286.143, 241.394 286.653, 214 287 L 174.500 287.500 169.855 290.230 C 167.301 291.732, 164.022 294.374, 162.568 296.101 C 157.358 302.293, 157 304.423, 157 329.199 L 157 352.154 159.923 355.077 C 162.607 357.761, 163.429 358, 169.973 358 C 178.497 358, 182.349 356.307, 183.892 351.881 C 184.533 350.042, 185 341.620, 185 331.907 C 185 315.687, 185.076 315.060, 187.223 313.557 C 189.125 312.224, 194.185 312, 222.328 312 C 256.954 312, 262.269 311.454, 270.992 307.004 C 276.991 303.944, 284.473 296.472, 287.706 290.313 C 300.164 266.581, 289.053 238.217, 263.225 227.820 C 257.582 225.549, 256.843 225.512, 211.478 225.204 L 165.456 224.892 161.993 227.226 M 437.030 226.279 C 433.581 228.024, 431.538 232.024, 432.381 235.381 C 433.021 237.931, 439.649 245.564, 465.482 273.500 C 471.077 279.550, 480.007 289.282, 485.327 295.127 L 495 305.754 495 326.909 C 495 356.006, 495.975 358, 510.207 358 C 517.368 358, 518.221 357.774, 521.234 355.084 L 524.500 352.168 524.804 328.906 L 525.107 305.645 535.860 294.072 C 565.999 261.637, 587.006 237.825, 587.612 235.409 C 588.535 231.732, 586.970 227.797, 583.983 226.286 C 580.400 224.473, 567.853 224.675, 562.982 226.624 C 559.800 227.897, 554.060 233.621, 536.419 253.112 C 515.209 276.545, 511.692 280, 509.044 280 C 507.723 280, 501.329 273.625, 490 261.011 C 469.527 238.214, 459.606 227.848, 456.949 226.474 C 453.422 224.650, 440.500 224.523, 437.030 226.279 M 602.314 226.950 C 600.561 228.019, 598.649 229.787, 598.064 230.881 C 596.655 233.513, 596.705 241.581, 598.147 244.274 C 600.926 249.468, 602.116 249.748, 623.472 250.234 C 634.488 250.485, 644.227 251.010, 645.115 251.400 C 648.782 253.012, 649 256, 649 304.624 L 649 352.154 651.923 355.077 C 654.692 357.846, 655.291 358, 663.287 358 C 670.969 358, 671.953 357.774, 674.241 355.486 C 675.624 354.103, 677.036 351.572, 677.378 349.861 C 677.720 348.150, 678 325.951, 678 300.530 C 678 255.053, 678.033 254.280, 680.071 252.436 C 681.913 250.769, 684.465 250.503, 703.154 250.031 L 724.167 249.500 727.083 246.234 C 732.406 240.275, 730.406 229.321, 723.466 226.421 C 720.660 225.249, 710.032 225.001, 662.782 225.004 C 607.826 225.007, 605.371 225.086, 602.314 226.950 M 750.500 225.945 C 749.400 226.396, 747.600 227.764, 746.500 228.987 C 744.546 231.159, 744.500 232.618, 744.500 292.192 L 744.500 353.173 747.306 355.587 C 749.759 357.697, 751.103 358, 758 358 C 764.895 358, 766.242 357.696, 768.694 355.589 L 771.500 353.177 772 330.621 C 772.441 310.719, 772.710 307.856, 774.284 306.283 C 775.903 304.666, 778.854 304.473, 806.038 304.208 L 836.007 303.916 838.503 306.412 L 841 308.909 841 330.378 L 841 351.846 844.077 354.923 C 847.018 357.864, 847.520 358, 855.441 358 C 862.959 358, 863.960 357.767, 866.241 355.486 C 867.624 354.103, 869.036 351.572, 869.378 349.861 C 870.440 344.551, 870.081 236.833, 868.989 232.900 C 867.275 226.730, 864.997 225.500, 855.285 225.500 C 846.807 225.500, 846.772 225.511, 843.890 228.962 L 841 232.424 841 252.640 L 841 272.855 838.313 274.969 C 835.693 277.029, 834.873 277.075, 805.723 276.791 L 775.821 276.500 773.910 274.139 C 772.177 271.997, 772 269.986, 772 252.436 C 772 231.451, 771.479 228.816, 766.855 226.425 C 763.899 224.896, 753.788 224.600, 750.500 225.945 M 282.666 392.427 C 282.013 394.129, 284.471 396.445, 285.956 395.527 C 286.530 395.172, 287 394.009, 287 392.941 C 287 390.649, 283.508 390.235, 282.666 392.427 M 331 395.564 C 331 399.859, 330.947 399.930, 328.435 398.975 C 324.238 397.380, 322.010 397.836, 318.923 400.923 C 315.348 404.498, 315.008 409.470, 318.073 413.365 C 319.728 415.469, 320.997 416, 324.373 416 C 326.698 416, 329.140 415.460, 329.800 414.800 C 330.733 413.867, 331 413.867, 331 414.800 C 331 415.460, 331.914 416, 333.031 416 C 334.976 416, 335.050 415.487, 334.781 403.844 C 334.534 393.156, 334.289 391.657, 332.750 391.432 C 331.310 391.222, 331 391.955, 331 395.564 M 515.688 391.646 C 515.309 392.024, 515 397.658, 515 404.167 C 515 415.333, 515.113 416, 517 416 C 518.770 416, 519 415.333, 519 410.200 C 519 403.769, 520.097 402, 524.083 402 C 527.181 402, 527.965 403.858, 527.986 411.250 C 527.998 415.411, 528.262 416, 530.109 416 C 532.100 416, 532.197 415.582, 531.841 408.530 C 531.538 402.531, 531.074 400.765, 529.482 399.562 C 527.219 397.851, 523.207 397.580, 521 398.988 C 519.775 399.770, 519.408 399.186, 519 395.800 C 518.523 391.849, 517.175 390.158, 515.688 391.646 M 259 404 C 259 415.221, 259.126 416, 260.945 416 C 262.556 416, 262.943 415.184, 263.195 411.250 L 263.500 406.500 269.750 406.202 C 274.309 405.985, 276 405.525, 276 404.500 C 276 403.475, 274.309 403.015, 269.750 402.798 L 263.500 402.500 263.190 398.750 L 262.879 395 270.440 395 C 276.493 395, 278 394.701, 278 393.500 C 278 392.272, 276.278 392, 268.500 392 L 259 392 259 404 M 500 395.433 C 500 396.987, 499.278 398.094, 498 398.500 C 496.900 398.849, 496 399.597, 496 400.161 C 496 400.725, 496.900 401.423, 498 401.710 C 499.704 402.156, 500 403.074, 500 407.917 C 500 414.602, 501.072 416, 506.200 416 C 510.740 416, 511.624 413.320, 507.250 412.816 C 504.685 412.521, 504.480 412.147, 504.198 407.250 C 503.908 402.209, 503.997 402, 506.448 402 C 509.644 402, 509.904 399.267, 506.750 398.820 C 505.139 398.591, 504.410 397.719, 504.184 395.750 C 503.761 392.077, 500 391.792, 500 395.433 M 553 396 C 553 398, 552.500 399, 551.500 399 C 550.675 399, 550 399.675, 550 400.500 C 550 401.325, 550.675 402, 551.500 402 C 552.636 402, 553 403.230, 553 407.066 C 553 414.229, 554.197 416, 559.035 416 C 562.178 416, 563 415.629, 563 414.211 C 563 412.916, 562.240 412.432, 560.250 412.461 C 557.632 412.498, 557.486 412.249, 557.198 407.250 L 556.895 402 559.948 402 C 561.994 402, 563 401.506, 563 400.500 C 563 399.500, 562 399, 560 399 C 557.333 399, 557 398.667, 557 396 C 557 393.667, 556.556 393, 555 393 C 553.444 393, 553 393.667, 553 396 M 753 395.969 C 753 398.197, 752.626 398.794, 751.500 398.362 C 750.459 397.962, 750 398.431, 750 399.893 C 750 401.099, 750.641 402, 751.500 402 C 752.636 402, 753 403.230, 753 407.066 C 753 414.229, 754.197 416, 759.035 416 C 763.711 416, 764.729 413.332, 760.250 412.816 C 757.685 412.521, 757.480 412.147, 757.198 407.250 L 756.895 402 760.021 402 C 762.460 402, 763.073 401.615, 762.810 400.250 C 762.596 399.143, 761.559 398.500, 759.986 398.500 C 758.017 398.500, 757.434 397.928, 757.184 395.750 C 756.960 393.807, 756.300 393, 754.934 393 C 753.456 393, 753 393.701, 753 395.969 M 299.223 399.557 C 297.977 400.429, 297 400.649, 297 400.057 C 297 399.476, 296.100 399, 295 399 C 293.157 399, 293 399.667, 293 407.500 C 293 415.900, 293.029 416, 295.500 416 C 297.879 416, 298 415.720, 298 410.200 C 298 403.949, 299.109 402, 302.665 402 C 305.662 402, 307 404.758, 307 410.934 C 307 415.333, 307.263 416, 309 416 C 310.796 416, 311 415.333, 311 409.455 C 311 403.838, 310.652 402.561, 308.545 400.455 C 305.727 397.636, 302.419 397.318, 299.223 399.557 M 352.850 398.727 C 351.422 399.057, 351.666 400.185, 354.664 407.102 C 358.372 415.660, 358.597 418.497, 355.566 418.504 C 353.418 418.509, 352.654 419.904, 353.806 421.720 C 354.329 422.544, 355.539 422.683, 357.535 422.149 C 360.161 421.447, 361.007 420.115, 365.140 410.179 C 369.576 399.515, 369.692 399, 367.640 399 C 365.932 399, 365.001 400.262, 363.109 405.140 L 360.728 411.280 358.270 405.390 C 355.454 398.641, 355.100 398.207, 352.850 398.727 M 379 398.660 C 373.032 401.024, 371.089 408.300, 375.073 413.365 C 376.851 415.626, 377.906 416, 382.500 416 C 387.094 416, 388.149 415.626, 389.927 413.365 C 394.387 407.695, 391.069 399.374, 384 398.499 C 382.075 398.261, 379.825 398.334, 379 398.660 M 429 398.729 C 428.175 399.043, 427.169 399.795, 426.765 400.400 C 426.257 401.161, 426.026 401.115, 426.015 400.250 C 426.007 399.563, 425.100 399, 424 399 C 422.157 399, 422 399.667, 422 407.500 C 422 415.333, 422.157 416, 424 416 C 425.721 416, 426 415.333, 426 411.223 C 426 405.854, 428.113 402, 431.057 402 C 432.333 402, 433 401.314, 433 400 C 433 398.008, 431.852 397.643, 429 398.729 M 452 410 C 452 421.333, 452.111 422, 454 422 C 455.590 422, 456 421.334, 455.999 418.750 L 455.999 415.500 460.909 415.840 C 464.829 416.112, 466.235 415.765, 467.884 414.116 C 472.523 409.477, 471.266 402.048, 465.367 399.235 C 462.491 397.864, 461.686 397.839, 459.276 399.045 C 457.749 399.810, 456.163 400.600, 455.750 400.801 C 455.337 401.002, 455 400.454, 455 399.583 C 455 398.712, 454.325 398, 453.500 398 C 452.250 398, 452 400, 452 410 M 479.250 399.031 C 478.012 399.529, 477 400.616, 477 401.449 C 477 402.671, 477.882 402.841, 481.599 402.331 C 484.931 401.875, 486.427 402.073, 487.033 403.053 C 488.332 405.156, 487.210 406, 483.115 406 C 480.392 406, 478.699 406.691, 477.003 408.496 C 474.899 410.736, 474.795 411.249, 475.991 413.484 C 477.241 415.819, 477.791 415.966, 484.766 415.834 L 492.208 415.692 491.815 408.726 C 491.486 402.917, 491.035 401.447, 489.100 399.880 C 486.625 397.876, 482.919 397.556, 479.250 399.031 M 570.201 400.484 C 567.527 402.734, 567 403.876, 567 407.415 C 567 413.226, 569.973 416, 576.204 416 C 582.136 416, 584.957 413.741, 585.670 408.420 C 586.400 402.984, 583.243 399.111, 577.450 398.333 C 574.060 397.879, 572.882 398.228, 570.201 400.484 M 611.223 399.557 C 609.977 400.429, 609 400.649, 609 400.057 C 609 399.476, 608.100 399, 607 399 C 605.116 399, 605 399.667, 605 410.500 C 605 421.333, 605.116 422, 607 422 C 608.683 422, 609 421.333, 609 417.800 C 609 414.533, 609.267 413.867, 610.200 414.800 C 610.860 415.460, 613.265 416, 615.545 416 C 621.078 416, 623.500 413.353, 623.500 407.308 C 623.500 403.638, 622.992 402.390, 620.694 400.413 C 617.452 397.625, 614.378 397.347, 611.223 399.557 M 631.700 399.179 C 627.562 400.688, 628.941 402.559, 633.910 402.176 C 638.070 401.856, 641.491 403.397, 640.430 405.113 C 640.129 405.601, 638.304 406, 636.375 406 C 631.060 406, 629 407.516, 629 411.428 C 629 413.568, 629.574 415.006, 630.582 415.393 C 633.235 416.411, 638.529 416.071, 639.800 414.800 C 640.733 413.867, 641 413.867, 641 414.800 C 641 415.460, 641.900 416, 643 416 C 644.796 416, 645 415.333, 645 409.455 C 645 403.838, 644.652 402.561, 642.545 400.455 C 639.924 397.833, 636.497 397.430, 631.700 399.179 M 678.223 399.557 C 676.977 400.429, 676 400.649, 676 400.057 C 676 399.476, 675.100 399, 674 399 C 672.157 399, 672 399.667, 672 407.500 C 672 415.333, 672.157 416, 674 416 C 675.749 416, 676 415.333, 676 410.691 C 676 404.401, 677.618 401.670, 681.056 402.155 C 683.337 402.477, 683.520 402.949, 683.796 409.250 C 684.055 415.180, 684.329 416, 686.046 416 C 687.728 416, 688 415.294, 688 410.934 C 688 404.700, 689.338 402, 692.428 402 C 695.326 402, 696 403.620, 696 410.582 C 696 415.333, 696.246 416, 698 416 C 699.810 416, 700 415.333, 700 409 C 700 403.333, 699.619 401.619, 698 400 C 695.664 397.664, 692.177 397.419, 689.468 399.400 C 687.826 400.600, 687.267 400.600, 685.554 399.400 C 682.967 397.588, 680.972 397.631, 678.223 399.557 M 707.923 400.923 C 704.125 404.721, 703.849 410.570, 707.314 413.826 C 711.452 417.712, 724.053 416.130, 721.525 412.041 C 721.087 411.331, 720.276 411.317, 719.005 411.997 C 716.108 413.548, 712.480 413.188, 710.653 411.169 C 708.317 408.588, 709.433 408, 716.667 408 C 722.243 408, 723 407.771, 723 406.082 C 723 402.820, 721.871 400.985, 718.928 399.463 C 714.568 397.208, 711.190 397.656, 707.923 400.923 M 734.223 399.557 C 732.977 400.429, 732 400.649, 732 400.057 C 732 399.476, 731.325 399, 730.500 399 C 729.284 399, 729 400.611, 729 407.500 C 729 415.333, 729.157 416, 731 416 C 732.773 416, 733 415.333, 733 410.122 C 733 403.667, 734.334 401.626, 738.195 402.173 C 740.307 402.473, 740.525 403.066, 740.796 409.250 C 741.081 415.769, 741.180 416, 743.680 416 L 746.269 416 745.754 408.806 C 745.334 402.941, 744.827 401.279, 743.009 399.806 C 740.270 397.588, 737.159 397.500, 734.223 399.557 M 283 407.500 C 283 415.333, 283.157 416, 285 416 C 286.843 416, 287 415.333, 287 407.500 C 287 399.667, 286.843 399, 285 399 C 283.157 399, 283 399.667, 283 407.500 M 398 405.277 C 398 413.349, 399.695 416, 404.857 416 C 406.916 416, 409.140 415.460, 409.800 414.800 C 410.733 413.867, 411 413.867, 411 414.800 C 411 415.460, 411.900 416, 413 416 C 414.843 416, 415 415.333, 415 407.500 C 415 399.667, 414.843 399, 413 399 C 411.246 399, 411 399.667, 411 404.429 C 411 410.144, 409.377 413, 406.129 413 C 403.121 413, 402 410.773, 402 404.800 C 402 399.667, 401.770 399, 400 399 C 398.212 399, 398 399.667, 398 405.277 M 650 399.907 C 650 400.406, 651.370 403.867, 653.044 407.599 C 656.506 415.315, 656.562 418.349, 653.250 418.820 C 651.757 419.032, 651 419.825, 651 421.178 C 651 422.898, 651.430 423.112, 653.750 422.545 C 657.881 421.537, 659.500 419.362, 663.422 409.556 C 667.571 399.183, 667.601 399, 665.134 399 C 663.756 399, 662.670 400.633, 660.981 405.250 L 658.694 411.500 657.530 408.500 C 656.889 406.850, 655.789 404.038, 655.085 402.250 C 654.266 400.171, 653.119 399, 651.902 399 C 650.856 399, 650 399.408, 650 399.907 M 320.776 404.593 C 318.287 410.055, 324.736 415.359, 329.082 411.425 C 331.406 409.322, 331.514 407.179, 329.443 404.223 C 327.176 400.985, 322.325 401.192, 320.776 404.593 M 378.200 403.200 C 376.481 404.919, 376.720 409.577, 378.625 411.483 C 381.206 414.064, 386.258 413.091, 387.411 409.790 C 388.919 405.475, 386.827 402, 382.721 402 C 380.895 402, 378.860 402.540, 378.200 403.200 M 457.571 403.571 C 454.344 406.799, 456.646 413, 461.071 413 C 463.249 413, 467 409.661, 467 407.723 C 467 403.110, 460.774 400.369, 457.571 403.571 M 572.200 403.200 C 570.246 405.154, 570.717 410.778, 572.934 411.965 C 576.106 413.663, 578.854 413.152, 580.560 410.549 C 582.225 408.007, 581.761 404.179, 579.615 402.765 C 577.874 401.618, 573.527 401.873, 572.200 403.200 M 610.655 403.829 C 608.484 406.228, 608.555 409.287, 610.829 411.345 C 614.663 414.815, 619 412.775, 619 407.500 C 619 405.795, 618.460 403.860, 617.800 403.200 C 616.033 401.433, 612.546 401.740, 610.655 403.829 M 710.200 403.200 C 708.235 405.165, 708.784 405.664, 713.101 405.833 C 718.090 406.028, 719.508 405.317, 717.926 403.411 C 716.495 401.687, 711.840 401.560, 710.200 403.200 M 482.250 409.031 C 479.429 410.165, 479.329 412.591, 482.074 413.309 C 484.360 413.907, 488.483 410.591, 487.477 408.964 C 486.760 407.803, 485.258 407.822, 482.250 409.031 M 635.250 408.706 C 633.843 408.977, 633 409.863, 633 411.070 C 633 413.923, 637.593 414.038, 639.750 411.240 C 642.153 408.121, 641.167 407.566, 635.250 408.706" stroke="none" fill="#2563EB" fill-rule="evenodd"/>
</svg>