<svg xmlns="http://www.w3.org/2000/svg" width="520" height="45" viewBox="0 0 520 45" version="1.1">
	<path d="M 9.220 18.750 C 9.483 30.740, 9.619 31.500, 11.500 31.500 C 13.177 31.500, 13.549 30.732, 13.805 26.750 L 14.110 22 19.996 22 C 26.102 22, 27.433 21.291, 26.396 18.590 C 25.933 17.383, 24.352 17, 19.830 17 L 13.873 17 14.187 13.750 L 14.500 10.500 21 10.439 C 27.573 10.377, 28 10.197, 28 7.500 C 28 6.272, 26.274 6, 18.470 6 L 8.940 6 9.220 18.750 M 32.171 8.176 C 32.415 9.900, 33.145 10.500, 35 10.500 C 36.833 10.500, 37.500 9.967, 37.500 8.500 C 37.500 7.048, 36.725 6.411, 34.671 6.176 C 32.211 5.894, 31.884 6.155, 32.171 8.176 M 80 9.877 L 80 13.754 75.576 13.256 C 71.789 12.829, 70.781 13.128, 68.576 15.333 C 66.675 17.235, 66 18.947, 66 21.873 C 66 24.053, 66.280 26.565, 66.621 27.455 C 67.726 30.333, 72.413 31.959, 78.642 31.624 L 84.500 31.309 84.780 18.655 L 85.060 6 82.530 6 C 80.258 6, 80 6.396, 80 9.877 M 264 18.393 C 264 28.799, 264.255 30.884, 265.590 31.396 C 268.243 32.414, 269 31.126, 269 25.596 C 269 21.745, 269.496 19.861, 270.829 18.655 C 271.835 17.745, 273.159 17, 273.772 17 C 276.065 17, 278 21.484, 278 26.796 C 278 31.352, 278.260 32.097, 279.750 31.812 C 281.204 31.535, 281.549 30.179, 281.791 23.789 C 282.067 16.492, 281.952 16.014, 279.520 14.421 C 277.735 13.252, 275.751 12.904, 272.979 13.276 L 269 13.810 269 9.905 C 269 6.406, 268.740 6, 266.500 6 L 264 6 264 18.393 M 249.882 8.861 C 249.816 9.762, 249.829 10.876, 249.910 11.336 C 249.991 11.796, 249.144 12.411, 248.029 12.703 C 245.727 13.305, 245.264 16.780, 247.378 17.591 C 248.217 17.913, 249.020 20.460, 249.432 24.106 C 250.029 29.377, 250.426 30.212, 252.766 31.101 C 256.371 32.472, 260 31.442, 260 29.047 C 260 27.708, 259.183 27.038, 257.277 26.816 C 254.856 26.535, 254.515 26.028, 254.203 22.250 C 253.851 17.985, 253.949 17.864, 258 17.596 C 260.578 17.426, 259.758 13.651, 257.002 13 C 255.396 12.621, 254.325 11.534, 254.002 9.955 C 253.436 7.187, 250.067 6.292, 249.882 8.861 M 304.750 7.749 C 303.788 7.968, 303 8.771, 303 9.534 C 303 10.298, 302.042 11.814, 300.872 12.905 C 298.638 14.986, 298.896 18, 301.306 18 C 302.248 18, 302.731 19.482, 302.853 22.750 C 302.950 25.363, 303.273 28.272, 303.571 29.215 C 304.260 31.397, 310.481 32.675, 312.452 31.040 C 314.459 29.375, 313.249 27, 310.393 27 C 308.224 27, 308 26.580, 308 22.500 C 308 20.025, 308.450 17.944, 309 17.875 C 309.550 17.806, 310.563 17.694, 311.250 17.625 C 311.938 17.556, 312.644 16.488, 312.820 15.250 C 313.080 13.418, 312.662 13, 310.570 13 C 308.512 13, 308 12.514, 308 10.559 C 308 7.802, 307.276 7.176, 304.750 7.749 M 504.250 7.667 C 503.563 7.942, 503 9.013, 503 10.048 C 503 11.083, 502.100 12.411, 501 13 C 499.900 13.589, 499 14.699, 499 15.468 C 499 16.236, 499.900 17.151, 501 17.500 C 502.672 18.031, 503 19.013, 503 23.496 C 503 27.036, 503.534 29.391, 504.571 30.429 C 506.285 32.142, 510.679 32.489, 512.896 31.086 C 514.534 30.048, 513.625 26.828, 511.763 27.072 C 508.302 27.525, 507.892 26.971, 508.195 22.250 C 508.451 18.268, 508.823 17.500, 510.500 17.500 C 511.813 17.500, 512.610 16.727, 512.820 15.250 C 513.078 13.431, 512.660 13, 510.636 13 C 508.668 13, 508.065 12.428, 507.816 10.327 C 507.491 7.579, 506.437 6.792, 504.250 7.667 M 181.726 12.608 C 181.392 12.942, 178.997 13.279, 176.404 13.358 L 171.689 13.500 171.908 22 C 172.028 26.675, 172.473 30.852, 172.896 31.283 C 173.319 31.713, 174.365 31.797, 175.220 31.469 C 176.352 31.035, 176.746 29.559, 176.669 26.052 C 176.555 20.834, 178.122 18, 181.122 18 C 182.542 18, 183 17.268, 183 15 C 183 11.932, 182.792 11.541, 181.726 12.608 M 32.667 13.667 C 32.300 14.033, 32 18.035, 32 22.560 C 32 31.096, 32.861 32.758, 36.552 31.342 C 37.840 30.847, 38.025 29.283, 37.639 22.123 C 37.383 17.380, 37.135 13.387, 37.087 13.250 C 36.896 12.702, 33.291 13.042, 32.667 13.667 M 43.214 22.371 C 43.476 30.738, 43.667 31.500, 45.500 31.500 C 47.219 31.500, 47.544 30.730, 47.811 26.012 C 48.117 20.590, 49.979 17.021, 52.316 17.376 C 55.263 17.824, 56 19.340, 56 24.952 C 56 29.362, 56.388 30.935, 57.590 31.396 C 60.361 32.460, 61 31.063, 61 23.941 C 61 14.445, 59.613 13.085, 50.018 13.175 L 42.928 13.242 43.214 22.371 M 101 13.557 C 101 13.863, 102.575 17.918, 104.500 22.568 C 106.425 27.219, 108 31.254, 108 31.536 C 108 31.819, 106.842 32.490, 105.427 33.028 C 102.502 34.140, 102.425 37.266, 105.311 37.821 C 109.013 38.534, 111.680 35.248, 115.868 24.817 C 118.145 19.142, 120.007 14.133, 120.004 13.684 C 120.002 13.235, 118.796 13.010, 117.324 13.184 C 115.044 13.453, 114.421 14.276, 113.105 18.750 C 112.256 21.638, 111.263 24, 110.897 24 C 110.531 24, 109.228 21.525, 108 18.500 C 106.172 13.996, 105.336 13, 103.384 13 C 102.073 13, 101 13.250, 101 13.557 M 125.495 15.414 C 122.102 18.807, 121.397 22.512, 123.360 26.628 C 125.828 31.805, 132.187 33.506, 137.941 30.530 C 143.375 27.721, 144.115 18.809, 139.234 14.969 C 135.544 12.067, 128.618 12.291, 125.495 15.414 M 148 20.943 C 148 28.018, 148.243 29.057, 150.223 30.443 C 152.700 32.179, 156.733 32.455, 158.966 31.042 C 159.875 30.467, 160.873 30.480, 161.590 31.074 C 162.226 31.602, 163.495 31.747, 164.410 31.396 C 165.817 30.856, 166.030 29.423, 165.787 22.129 C 165.506 13.668, 165.451 13.500, 163 13.500 C 160.649 13.500, 160.482 13.853, 160.195 19.430 C 159.875 25.636, 158.091 28.331, 155.042 27.212 C 152.554 26.299, 152.032 24.837, 152.015 18.750 C 152.002 13.672, 151.766 13, 150 13 C 148.168 13, 148 13.667, 148 20.943 M 201.220 25.376 C 201.491 37.090, 201.576 37.511, 203.750 37.820 C 205.729 38.101, 206 37.702, 206 34.508 L 206 30.877 210.320 31.525 C 214.066 32.087, 215.064 31.817, 217.820 29.498 C 220.335 27.382, 221 26.051, 221 23.134 C 221 19.685, 218.974 15.417, 216.566 13.792 C 215.989 13.402, 212.237 13.121, 208.228 13.168 L 200.940 13.253 201.220 25.376 M 228.176 14.059 C 224.959 15.348, 225.662 18.643, 229.041 18.118 C 233.897 17.362, 236.311 17.519, 236.690 18.613 C 236.915 19.262, 235.360 19.957, 232.960 20.279 C 225.797 21.239, 222.892 25.892, 226.933 29.933 C 228.495 31.495, 230.075 31.822, 235.183 31.640 L 241.500 31.413 241.799 23.957 C 242.066 17.323, 241.860 16.307, 239.939 14.750 C 237.611 12.864, 231.981 12.533, 228.176 14.059 M 318.923 15.923 C 315.467 19.379, 315.152 23.098, 317.931 27.655 C 321.008 32.701, 329.112 33.340, 333.865 28.911 C 335.435 27.449, 336 25.729, 336 22.416 C 336 16.123, 332.839 13, 326.469 13 C 322.693 13, 321.311 13.535, 318.923 15.923 M 354.374 14.467 C 354.129 15.106, 354.057 20.550, 354.214 26.564 C 354.500 37.486, 354.503 37.500, 357 37.500 C 359.095 37.500, 359.551 36.968, 359.816 34.217 C 360.118 31.080, 360.279 30.962, 363.461 31.559 C 366.961 32.215, 370.595 30.852, 372.718 28.087 C 373.388 27.214, 373.951 24.395, 373.968 21.823 C 373.995 17.953, 373.550 16.791, 371.395 15.096 C 369.286 13.437, 367.459 13.071, 361.805 13.176 C 357.532 13.255, 354.647 13.756, 354.374 14.467 M 380.750 14.080 C 378.838 15.194, 378.429 17.529, 379.979 18.487 C 380.518 18.820, 381.910 18.583, 383.072 17.961 C 385.276 16.782, 390 17.413, 390 18.887 C 390 19.354, 388.165 19.983, 385.922 20.284 C 381.095 20.931, 378 23.411, 378 26.632 C 378 30.988, 383.955 32.539, 395.047 31.072 C 396.173 30.924, 394.748 17.412, 393.379 15.250 C 392.224 13.426, 391.059 13.006, 387.227 13.030 C 384.627 13.047, 381.712 13.519, 380.750 14.080 M 399 13.642 C 399 13.996, 400.610 18.032, 402.577 22.613 C 404.545 27.194, 405.868 31.405, 405.518 31.971 C 405.168 32.537, 404.009 33, 402.941 33 C 401.537 33, 401 33.692, 401 35.500 C 401 37.581, 401.477 38, 403.845 38 C 407.655 38, 409.343 35.894, 413.096 26.460 C 414.838 22.082, 416.654 18.072, 417.131 17.550 C 417.609 17.027, 418 15.760, 418 14.734 C 418 13.301, 417.383 12.941, 415.348 13.184 C 413.140 13.447, 412.469 14.286, 411.333 18.201 C 410.582 20.786, 409.576 23.144, 409.096 23.441 C 408.616 23.737, 407.221 21.509, 405.996 18.490 C 404.172 13.995, 403.336 13, 401.384 13 C 400.073 13, 399 13.289, 399 13.642 M 422 22.568 C 422 31.333, 422.141 32, 424 32 C 425.699 32, 426 31.333, 426 27.565 C 426 22.118, 427.297 18.484, 429.550 17.619 C 432.471 16.498, 433.894 18.854, 434.204 25.325 C 434.441 30.251, 434.850 31.546, 436.250 31.813 C 437.757 32.100, 438 31.325, 438 26.228 C 438 21.765, 438.450 19.903, 439.829 18.655 C 443.685 15.166, 445.276 16.932, 445.996 25.500 C 446.369 29.943, 446.889 31.500, 448 31.500 C 449.171 31.500, 449.565 29.883, 449.796 24.130 C 450.035 18.188, 449.748 16.379, 448.316 14.797 C 446.905 13.237, 445.714 12.950, 442.520 13.401 C 440.309 13.713, 438.050 13.949, 437.500 13.924 C 436.950 13.900, 433.238 13.712, 429.250 13.508 L 422 13.136 422 22.568 M 457.495 15.414 C 452.161 20.748, 453.719 28.762, 460.526 31.009 C 466.297 32.913, 473.590 30.701, 472.334 27.427 C 471.666 25.687, 469.619 25.597, 467.061 27.194 C 465.592 28.112, 464.551 28.117, 462.574 27.216 C 458.191 25.219, 459.638 24, 466.393 24 C 473.392 24, 474.689 22.944, 473.035 18.592 C 470.837 12.811, 461.921 10.988, 457.495 15.414 M 478.448 13.886 C 478.201 14.132, 478 18.035, 478 22.560 C 478 29.157, 478.315 30.907, 479.590 31.396 C 482.232 32.410, 482.999 31.132, 483.015 25.691 C 483.032 19.988, 483.572 18.697, 486.377 17.660 C 489.564 16.481, 491 18.766, 491 25.015 C 491 29.368, 491.391 30.936, 492.590 31.396 C 495.350 32.455, 496 31.070, 496 24.130 C 496 18.742, 495.593 16.940, 493.985 15.214 C 492.271 13.374, 490.993 13.080, 485.432 13.245 C 481.837 13.351, 478.694 13.640, 478.448 13.886 M 71.452 19.433 C 70.227 21.302, 70.109 22.335, 70.941 23.890 C 73.592 28.842, 80 28.150, 80 22.911 C 80 17.331, 74.339 15.027, 71.452 19.433 M 129.792 18.250 C 126.029 21.208, 127.036 26.067, 131.699 27.450 C 134.748 28.354, 138.358 24.731, 137.429 21.699 C 136.470 18.568, 135.015 17, 133.069 17 C 132.141 17, 130.667 17.563, 129.792 18.250 M 207.440 19.451 C 205.566 22.312, 206.257 25.532, 209.068 27.036 C 213.561 29.441, 217.972 22.837, 214.464 18.960 C 212.062 16.307, 209.377 16.494, 207.440 19.451 M 322.496 19.365 C 321.313 21.172, 321.186 22.358, 321.958 24.391 C 323.284 27.878, 325.436 28.600, 328.508 26.587 C 333.125 23.562, 331.127 17, 325.589 17 C 324.740 17, 323.349 18.064, 322.496 19.365 M 361.612 18.294 C 360.369 19.203, 359.940 20.617, 360.171 23.044 C 360.456 26.037, 360.895 26.545, 363.451 26.836 C 368.249 27.382, 370.845 21.988, 367.429 18.571 C 365.518 16.661, 363.948 16.586, 361.612 18.294 M 461 18.500 C 459.927 19.793, 460.340 20, 464 20 C 467.660 20, 468.073 19.793, 467 18.500 C 466.315 17.675, 464.965 17, 464 17 C 463.035 17, 461.685 17.675, 461 18.500 M 231.199 25.550 C 230.119 26.775, 230.184 27.133, 231.585 27.671 C 233.417 28.374, 236.146 27.063, 236.774 25.179 C 237.341 23.476, 232.760 23.781, 231.199 25.550 M 384.667 24.667 C 383.393 25.940, 384.010 27.667, 385.750 27.697 C 387.712 27.731, 390 26.213, 390 24.878 C 390 23.856, 385.650 23.684, 384.667 24.667" stroke="none" fill="#64748B" fill-rule="evenodd"/>
</svg>